<svg width="32" height="32" viewBox="0 0 32 32" fill="none" xmlns="http://www.w3.org/2000/svg">
<path d="M30 16H16H2C2 8.26801 8.26801 2 16 2C23.732 2 30 8.26801 30 16Z" fill="#55A3CF"/>
<path d="M30 16H16H2C2 8.26801 8.26801 2 16 2C23.732 2 30 8.26801 30 16Z" stroke="black"/>
<path d="M24.0226 4L26.9027 6.79755C27.6707 7.54357 23.7026 10.5276 21.6225 11.9264C20.6625 12.3927 18.2624 10.5276 19.2224 9.5951C19.7655 9.06759 22.7426 5.86503 24.0226 4Z" fill="#DC3D3D"/>
<path d="M7.97739 4L5.09728 6.79755C4.32925 7.54357 8.2974 10.5276 10.3775 11.9264C11.3375 12.3927 13.7376 10.5276 12.7776 9.5951C12.2345 9.06759 9.25743 5.86503 7.97739 4Z" fill="#DC3D3D"/>
<path d="M2 16C8.5733 16 8.04416 16 15.5 16C22.9558 16 19.034 16 29 16C29 23.732 22.9558 30 15.5 30C8.04416 30 2 23.732 2 16Z" fill="white"/>
<circle cx="16" cy="16" r="14" stroke="black" stroke-width="2"/>
<line x1="1.9375" y1="15.9375" x2="30.0625" y2="15.9375" stroke="black" stroke-width="2"/>
<circle cx="15.946" cy="15.946" r="3.63351" fill="white" stroke="black" stroke-width="2"/>
<ellipse opacity="0.65" cx="10.301" cy="8.07881" rx="2.5" ry="3.5" transform="rotate(54.0412 10.301 8.07881)" fill="white"/>
<path opacity="0.4" d="M29.5 17.6165C32 13.3707 30 32.6103 9 28.0074C23 28.8707 27 21.8624 29.5 17.6165Z" fill="black" stroke="black"/>
</svg>
